<svg xmlns="http://www.w3.org/2000/svg" viewBox="0 0 48 48" fill="none">
  <defs>
    <linearGradient id="sd" x1="0" y1="24" x2="48" y2="24" gradientUnits="userSpaceOnUse">
      <stop offset="0%" stop-color="#F97316"/>
      <stop offset="100%" stop-color="#EA580C"/>
    </linearGradient>
  </defs>
  <!-- Diffusion wave pattern -->
  <path d="M4 32 Q12 18, 20 28 Q28 38, 36 22 Q40 16, 44 20" stroke="url(#sd)" stroke-width="3" stroke-linecap="round" fill="none" opacity="0.4"/>
  <path d="M4 26 Q12 12, 20 22 Q28 32, 36 16 Q40 10, 44 14" stroke="url(#sd)" stroke-width="3" stroke-linecap="round" fill="none" opacity="0.7"/>
  <path d="M4 20 Q12 6, 20 16 Q28 26, 36 10 Q40 4, 44 8" stroke="url(#sd)" stroke-width="3.5" stroke-linecap="round" fill="none"/>
  <!-- Scatter dots -->
  <circle cx="10" cy="36" r="2" fill="#F97316" opacity="0.5"/>
  <circle cx="24" cy="38" r="1.5" fill="#F97316" opacity="0.4"/>
  <circle cx="38" cy="34" r="2.5" fill="#F97316" opacity="0.3"/>
  <circle cx="16" cy="40" r="1" fill="#EA580C" opacity="0.6"/>
  <circle cx="32" cy="42" r="1.5" fill="#EA580C" opacity="0.3"/>
</svg>
